STARTFONT 2.1
FONT -FontForge-Futura Hv BT-Book-R-Normal--48-460-75-75-P-278-ISO10646-1
SIZE 46 75 75
FONTBOUNDINGBOX 48 51 -1 -13
COMMENT "Generated by fontforge, http://fontforge.sourceforge.net"
COMMENT "Copyright 1990-1993 Bitstream Inc.  All rights reserved."
STARTPROPERTIES 39
FOUNDRY "FontForge"
FAMILY_NAME "Futura Hv BT"
WEIGHT_NAME "Book"
SLANT "R"
SETWIDTH_NAME "Normal"
ADD_STYLE_NAME ""
PIXEL_SIZE 48
POINT_SIZE 460
RESOLUTION_X 75
RESOLUTION_Y 75
SPACING "P"
AVERAGE_WIDTH 278
CHARSET_REGISTRY "ISO10646"
CHARSET_ENCODING "1"
FONTNAME_REGISTRY ""
CHARSET_COLLECTIONS "ISO10646-1"
FONT_NAME "FuturaBT-Heavy"
FACE_NAME "Futura Heavy BT"
COPYRIGHT "Copyright 1990-1993 Bitstream Inc.  All rights reserved."
FONT_VERSION "mfgpctt-v1.52 Tuesday, January 12, 1993 3:42:48 pm (EST)"
FONT_ASCENT 38
FONT_DESCENT 10
UNDERLINE_POSITION -7
UNDERLINE_THICKNESS 5
X_HEIGHT 22
CAP_HEIGHT 33
RAW_ASCENT 799
RAW_DESCENT 200
RELATIVE_WEIGHT 40
RELATIVE_SETWIDTH 50
SUPERSCRIPT_X 0
SUPERSCRIPT_Y 13
SUPERSCRIPT_SIZE 28
SUBSCRIPT_X 0
SUBSCRIPT_Y -10
SUBSCRIPT_SIZE 28
FIGURE_WIDTH 29
AVG_LOWERCASE_WIDTH 257
AVG_UPPERCASE_WIDTH 320
ENDPROPERTIES
CHARS 96
STARTCHAR exclam
ENCODING 33
SWIDTH 335 0
DWIDTH 16 0
BBX 8 35 5 0
BITMAP
FE
FE
FE
FE
FE
FE
FE
FE
FE
FE
FE
FE
FE
FE
FE
FE
FE
FE
FE
FE
FE
FE
FE
00
00
00
00
3C
7E
FF
FF
FF
FF
7E
3C
ENDCHAR
STARTCHAR quotedbl
ENCODING 34
SWIDTH 331 0
DWIDTH 16 0
BBX 13 13 1 21
BITMAP
F8F8
F8F8
F8F8
F8F8
F8F8
F8F8
F8F8
F8F8
F8F8
F8F8
F8F8
F8F8
F8F8
ENDCHAR
STARTCHAR numbersign
ENCODING 35
SWIDTH 769 0
DWIDTH 37 0
BBX 35 34 1 0
BITMAP
0001F83F00
0001F03E00
0001F03E00
0003F07C00
0003E07C00
0007E0FC00
0007C0F800
0007C0F800
000FC1F800
07FFFFFFE0
07FFFFFFC0
0FFFFFFFC0
0FFFFFFFC0
0FFFFFFF80
103E07C000
003E07C000
003E07C000
007C0FC000
007C0F8000
007C0F8000
3FFFFFFF00
7FFFFFFE00
7FFFFFFE00
7FFFFFFC00
FFFFFFFC00
01F03E0000
03E07C0000
03E07C0000
07E0FC0000
07C0F80000
07C0F80000
0FC1F00000
0F81F00000
1F83F00000
ENDCHAR
STARTCHAR dollar
ENCODING 36
SWIDTH 612 0
DWIDTH 29 0
BBX 22 42 3 -4
BITMAP
001800
001800
001800
00FF00
07FFC0
0FFFF0
3FFFF8
3FFFF0
7F9BE0
7F18C0
FE1880
FE1800
FE1800
FE1800
FF1800
FF9800
7FF800
7FFC00
3FFF00
1FFF80
07FFC0
03FFF0
00FFF0
003FF8
003FF8
0033FC
0031FC
0031FC
0031FC
1031FC
3833FC
7E37F8
FFFFF8
7FFFF0
7FFFF0
3FFFE0
0FFF80
03FC00
003000
003000
003000
003000
ENDCHAR
STARTCHAR percent
ENCODING 37
SWIDTH 845 0
DWIDTH 41 0
BBX 39 35 1 0
BITMAP
07E0000F00
1FF8001E00
3FFC001C00
7E7E003800
7C3E003800
781E007000
F81F00F000
F81F00E000
F81F01C000
F81F01C000
F81F038000
F81F078000
F81F070000
781E0E0000
7C3E0E0000
7E7E1C0000
3FFC3C0FC0
1FF8383FF0
07E0707FF8
000070FCFC
0000E0F87C
0001E0F03C
0001C1F03E
0003C1F03E
000381F03E
000701F03E
000F01F03E
000E01F03E
001E01F03E
001C00F03C
003800F87C
007800FCFC
0070007FF8
00F0003FF0
01E0000FC0
ENDCHAR
STARTCHAR ampersand
ENCODING 38
SWIDTH 714 0
DWIDTH 34 0
BBX 31 35 2 0
BITMAP
003F8000
01FFE000
03FFF000
07FFF800
07E1F800
0FE1FC00
0FC0FC00
0FC0FC00
0FC0FC00
0FC0FC00
0FE1F800
07F3F800
07F7F000
07FFE000
03FFC000
01FF8000
03FF0000
07FF0000
1FFF8020
3FFFC070
3FDFE0F8
7F8FF1FC
7E07FBF8
FE03FFF8
FC01FFF0
FC01FFE0
FC00FFC0
FE007F80
FE00FFC0
7F83FFE0
7FFFFFE0
3FFFFFF0
1FFFE7F8
07FFC3FC
01FE01FE
ENDCHAR
STARTCHAR quotesingle
ENCODING 39
SWIDTH 171 0
DWIDTH 8 0
BBX 5 13 2 21
BITMAP
F8
F8
F8
F8
F8
F8
F8
F8
F8
F8
F8
F8
F8
ENDCHAR
STARTCHAR parenleft
ENCODING 40
SWIDTH 335 0
DWIDTH 16 0
BBX 11 47 4 -13
BITMAP
0700
07E0
0FC0
0FC0
1F80
1F80
1F80
3F00
3F00
3F00
7F00
7E00
7E00
7E00
7E00
7E00
FC00
FC00
FC00
FC00
FC00
FC00
FC00
FC00
FC00
FC00
FC00
FC00
FC00
FC00
FC00
7C00
7E00
7E00
7E00
7E00
3E00
3F00
3F00
3F00
1F80
1F80
0F80
0FC0
0FC0
07E0
0700
ENDCHAR
STARTCHAR parenright
ENCODING 41
SWIDTH 335 0
DWIDTH 16 0
BBX 11 47 1 -13
BITMAP
1C00
FC00
7E00
7E00
7F00
3F00
3F00
1F80
1F80
1F80
1F80
0FC0
0FC0
0FC0
0FC0
0FC0
07E0
07E0
07E0
07E0
07E0
07E0
07E0
07E0
07E0
07E0
07E0
07E0
07E0
07E0
07E0
0FC0
0FC0
0FC0
0FC0
0FC0
0F80
1F80
1F80
1F80
3F00
3F00
3E00
7E00
7E00
FC00
1C00
ENDCHAR
STARTCHAR asterisk
ENCODING 42
SWIDTH 475 0
DWIDTH 23 0
BBX 18 17 3 17
BITMAP
01E000
01E000
01E000
21E100
71E380
FDEFC0
7FFF80
1FFE00
07F800
0FFC00
3FFF00
FFFFC0
7DEF80
71E380
41E100
01E000
01E000
ENDCHAR
STARTCHAR plus
ENCODING 43
SWIDTH 833 0
DWIDTH 40 0
BBX 29 29 6 0
BITMAP
000F8000
000F8000
000F8000
000F8000
000F8000
000F8000
000F8000
000F8000
000F8000
000F8000
000F8000
000F8000
FFFFFFF8
FFFFFFF8
FFFFFFF8
FFFFFFF8
FFFFFFF8
000F8000
000F8000
000F8000
000F8000
000F8000
000F8000
000F8000
000F8000
000F8000
000F8000
000F8000
000F8000
ENDCHAR
STARTCHAR comma
ENCODING 44
SWIDTH 307 0
DWIDTH 15 0
BBX 12 15 1 -8
BITMAP
0FF0
0FE0
0FE0
0FC0
1FC0
1F80
1F80
3F00
3F00
3E00
7E00
7C00
7C00
F800
F800
ENDCHAR
STARTCHAR hyphen
ENCODING 45
SWIDTH 416 0
DWIDTH 20 0
BBX 13 6 3 8
BITMAP
FFF8
FFF8
FFF8
FFF8
FFF8
FFF8
ENDCHAR
STARTCHAR period
ENCODING 46
SWIDTH 307 0
DWIDTH 15 0
BBX 8 8 3 0
BITMAP
3C
7E
FF
FF
FF
FF
7E
3C
ENDCHAR
STARTCHAR slash
ENCODING 47
SWIDTH 454 0
DWIDTH 22 0
BBX 22 40 0 -6
BITMAP
00007C
0000F8
0000F8
0001F8
0001F0
0001F0
0003E0
0003E0
0007C0
0007C0
0007C0
000F80
000F80
001F00
001F00
003E00
003E00
003E00
007C00
007C00
00F800
00F800
01F000
01F000
01F000
03E000
03E000
07C000
07C000
0F8000
0F8000
0F8000
1F0000
1F0000
3E0000
3E0000
7E0000
7C0000
7C0000
F80000
ENDCHAR
STARTCHAR zero
ENCODING 48
SWIDTH 612 0
DWIDTH 29 0
BBX 25 35 2 0
BITMAP
007F0000
01FFC000
07FFF000
0FFFF800
1FFFFC00
1FFFFC00
3FE3FE00
3F80FE00
7F80FF00
7F007F00
7F007F00
7F007F00
FE003F80
FE003F80
FE003F80
FE003F80
FE003F80
FE003F80
FE003F80
FE003F80
FE003F80
FE003F80
FE003F80
7F007F00
7F007F00
7F007F00
7F80FF00
3F80FE00
3FE3FE00
1FFFFC00
1FFFFC00
0FFFF800
07FFF000
01FFC000
007F0000
ENDCHAR
STARTCHAR one
ENCODING 49
SWIDTH 612 0
DWIDTH 29 0
BBX 14 34 5 0
BITMAP
1FFC
3FFC
3FFC
7FFC
7FFC
FFFC
01FC
01FC
01FC
01FC
01FC
01FC
01FC
01FC
01FC
01FC
01FC
01FC
01FC
01FC
01FC
01FC
01FC
01FC
01FC
01FC
01FC
01FC
01FC
01FC
01FC
01FC
01FC
01FC
ENDCHAR
STARTCHAR two
ENCODING 50
SWIDTH 612 0
DWIDTH 29 0
BBX 24 35 2 0
BITMAP
00FF80
03FFE0
0FFFF8
1FFFFC
3FFFFE
3FFFFE
3FC1FF
7F80FF
7F007F
7F007F
7F007F
00007F
0000FE
0000FE
0001FE
0001FC
0003FC
0007F8
000FF0
000FF0
001FE0
003FC0
007FC0
007F80
00FF00
01FE00
03FC00
03FC00
07F800
0FFFFF
1FFFFF
1FFFFF
3FFFFF
7FFFFF
FFFFFF
ENDCHAR
STARTCHAR three
ENCODING 51
SWIDTH 612 0
DWIDTH 29 0
BBX 24 35 2 0
BITMAP
00FF00
07FFE0
0FFFF0
1FFFF8
3FFFFC
3FFFFC
7FC3FE
7F81FE
7F00FE
0000FE
0000FE
0000FE
0001FC
0003FC
001FF8
001FF0
001FC0
001FF0
001FF8
001FFC
0003FE
0000FE
00007F
00007F
00007F
FE007F
FE007F
FF00FF
FF81FE
7FFFFE
7FFFFC
3FFFFC
1FFFF8
07FFE0
01FF00
ENDCHAR
STARTCHAR four
ENCODING 52
SWIDTH 612 0
DWIDTH 29 0
BBX 27 35 1 0
BITMAP
00007E00
0000FE00
0001FE00
0001FE00
0003FE00
0007FE00
0007FE00
000FFE00
001FFE00
003F7E00
003F7E00
007E7E00
00FC7E00
00FC7E00
01F87E00
03F07E00
03F07E00
07E07E00
0FC07E00
0FC07E00
1F807E00
3F007E00
3F007E00
7FFFFFE0
FFFFFFE0
FFFFFFE0
FFFFFFE0
FFFFFFE0
00007E00
00007E00
00007E00
00007E00
00007E00
00007E00
00007E00
ENDCHAR
STARTCHAR five
ENCODING 53
SWIDTH 612 0
DWIDTH 29 0
BBX 24 34 2 0
BITMAP
03FFFE
07FFFE
07FFFE
07FFFE
07FFFE
0FFFFE
0FC000
0FC000
0FC000
1F8000
1F8000
1FFF80
1FFFE0
3FFFF0
3FFFF8
3FFFFC
3C07FE
7001FE
0000FF
00007F
00007F
00007F
00007F
00007F
0000FF
0000FF
6001FE
7807FE
7FFFFC
FFFFFC
FFFFF8
7FFFE0
1FFFC0
07FE00
ENDCHAR
STARTCHAR six
ENCODING 54
SWIDTH 612 0
DWIDTH 29 0
BBX 24 34 3 0
BITMAP
001FE0
003FC0
003F80
007F80
00FF00
00FE00
01FC00
03FC00
03F800
07F000
0FF000
0FE000
1FDF80
1FFFF0
3FFFF8
3FFFFC
7FFFFC
7FC3FE
7F00FE
FF00FF
FE007F
FE007F
FE007F
FE007F
FE007F
FF00FF
7F00FE
7FC3FE
7FFFFC
3FFFFC
1FFFF8
0FFFF0
07FFC0
00FF00
ENDCHAR
STARTCHAR seven
ENCODING 55
SWIDTH 612 0
DWIDTH 29 0
BBX 24 34 3 0
BITMAP
FFFFFF
FFFFFF
FFFFFF
FFFFFE
FFFFFE
FFFFFC
0001FC
0003F8
0003F8
0007F8
0007F0
000FF0
000FE0
000FE0
001FC0
001FC0
003F80
003F80
007F00
007F00
00FE00
00FE00
01FC00
01FC00
03F800
03F800
07F000
07F000
0FF000
0FE000
1FE000
1FC000
3FC000
3F8000
ENDCHAR
STARTCHAR eight
ENCODING 56
SWIDTH 612 0
DWIDTH 29 0
BBX 24 35 2 0
BITMAP
00FF00
03FFC0
0FFFF0
1FFFF8
3FFFFC
3FFFFC
7FC3FE
7F81FE
7F00FE
7F00FE
7F00FE
7F00FE
7F81FC
3FC3FC
1FFFF8
0FFFF0
07FFE0
07FFE0
1FFFF8
3FFFFC
7FC1FE
7F00FE
FE007F
FE007F
FE007F
FE007F
FE007F
FF00FF
FFC1FF
7FFFFE
7FFFFE
3FFFFC
1FFFF8
07FFE0
01FF00
ENDCHAR
STARTCHAR nine
ENCODING 57
SWIDTH 612 0
DWIDTH 29 0
BBX 24 35 3 0
BITMAP
00FF00
03FFE0
0FFFF0
1FFFF8
3FFFFC
3FFFFE
7FC3FE
7F00FE
FF00FF
FE007F
FE007F
FE007F
FE007F
FE007F
FF00FF
7F00FE
7FC3FE
3FFFFE
3FFFFC
1FFFFC
0FFFFC
01FBF8
0007F8
0007F0
000FE0
001FE0
001FC0
003F80
007F80
00FF00
00FF00
01FE00
03FC00
03FC00
07F800
ENDCHAR
STARTCHAR colon
ENCODING 58
SWIDTH 335 0
DWIDTH 16 0
BBX 8 23 4 0
BITMAP
3C
7E
FF
FF
FF
FF
7E
3C
00
00
00
00
00
00
00
3C
7E
FF
FF
FF
FF
7E
3C
ENDCHAR
STARTCHAR semicolon
ENCODING 59
SWIDTH 335 0
DWIDTH 16 0
BBX 13 31 2 -8
BITMAP
01E0
03F0
07F8
07F8
07F8
07F8
03F0
01E0
0000
0000
0000
0000
0000
0000
0000
0000
07F0
07E0
0FE0
0FC0
0FC0
1F80
1F80
1F80
3F00
3F00
3E00
7E00
7C00
FC00
F800
ENDCHAR
STARTCHAR less
ENCODING 60
SWIDTH 833 0
DWIDTH 40 0
BBX 28 27 6 1
BITMAP
00000010
000000F0
000003F0
00001FF0
00007FF0
0003FFE0
000FFF00
007FFC00
01FFE000
0FFF8000
3FFC0000
FFF00000
FF800000
FE000000
FF800000
FFF00000
3FFC0000
0FFF8000
01FFE000
007FFC00
000FFF00
0003FFE0
00007FF0
00001FF0
000003F0
000000F0
00000010
ENDCHAR
STARTCHAR equal
ENCODING 61
SWIDTH 833 0
DWIDTH 40 0
BBX 28 15 6 7
BITMAP
FFFFFFF0
FFFFFFF0
FFFFFFF0
FFFFFFF0
FFFFFFF0
00000000
00000000
00000000
00000000
00000000
FFFFFFF0
FFFFFFF0
FFFFFFF0
FFFFFFF0
FFFFFFF0
ENDCHAR
STARTCHAR greater
ENCODING 62
SWIDTH 833 0
DWIDTH 40 0
BBX 28 27 6 1
BITMAP
80000000
F0000000
FC000000
FF800000
FFE00000
7FFC0000
0FFF0000
03FFE000
007FF800
001FFF00
0003FFC0
0000FFF0
00001FF0
000007F0
00001FF0
0000FFF0
0003FFC0
001FFF00
007FF800
03FFE000
0FFF0000
7FFC0000
FFE00000
FF800000
FC000000
F0000000
80000000
ENDCHAR
STARTCHAR question
ENCODING 63
SWIDTH 579 0
DWIDTH 28 0
BBX 21 35 2 0
BITMAP
01FC00
0FFF80
1FFFC0
3FFFE0
7FFFF0
7F0FF0
FE07F8
FE03F8
FE03F8
FE03F8
0003F8
0003F8
0007F8
001FF0
01FFE0
01FFE0
01FF80
01FE00
01F800
01F800
01F800
01F800
01F800
01F800
000000
000000
000000
00F000
01F800
03FC00
03FC00
03FC00
03FC00
01F800
00F000
ENDCHAR
STARTCHAR at
ENCODING 64
SWIDTH 1000 0
DWIDTH 48 0
BBX 44 42 2 -7
BITMAP
00001FF80000
0001FFFF8000
0007FFFFE000
001FFFFFF800
007FE007FC00
00FF0000FE00
01FC00003F00
03F000000F80
07E0000007C0
0F80000003C0
1F80000003E0
1F001F8001E0
3E007FC781E0
3C00FFEF80F0
7C01FFFF80F0
7803F07F80F0
7807E03F00F0
780FC01F00F0
F00F801F00F0
F00F801E00F0
F01F803E01F0
F01F003E01E0
F01F003E01E0
F01F007C03E0
F01F007C07C0
F01F00FC0FC0
F01F81FC1F80
781FC3FE7F00
780FFFBFFE00
7C0FFF3FFC00
3C07FE1FF000
3E01F80FC000
1F0000000000
1F8000000000
0FC000001800
07E000007C00
03FC0001FE00
01FF801FF800
007FFFFFF000
001FFFFFC000
0007FFFE0000
00007FF00000
ENDCHAR
STARTCHAR A
ENCODING 65
SWIDTH 712 0
DWIDTH 34 0
BBX 35 34 0 0
BITMAP
0007FC0000
000FFC0000
000FFE0000
000FFE0000
001FFE0000
001FFF0000
001FFF0000
003FFF8000
003F3F8000
007F3F8000
007F3FC000
007F1FC000
00FE1FE000
00FE1FE000
01FE0FE000
01FC0FF000
01FC0FF000
03FC07F000
03F807F800
03F807F800
07F003FC00
07FFFFFC00
0FFFFFFC00
0FFFFFFE00
0FFFFFFE00
1FFFFFFF00
1FFFFFFF00
3FC000FF00
3FC000FF80
3F80007F80
7F80007FC0
7F80003FC0
7F00003FC0
FF00003FE0
ENDCHAR
STARTCHAR B
ENCODING 66
SWIDTH 597 0
DWIDTH 29 0
BBX 23 34 4 0
BITMAP
FFFC00
FFFF80
FFFFE0
FFFFF0
FFFFF8
FFFFF8
FE07FC
FE03FC
FE01FC
FE01FC
FE01FC
FE03F8
FE07F8
FFFFF0
FFFFC0
FFFF00
FFFFC0
FFFFF0
FFFFF8
FE07FC
FE01FC
FE00FE
FE00FE
FE00FE
FE00FE
FE00FE
FE01FE
FE07FC
FFFFFC
FFFFF8
FFFFF0
FFFFE0
FFFFC0
FFFC00
ENDCHAR
STARTCHAR C
ENCODING 67
SWIDTH 717 0
DWIDTH 34 0
BBX 29 35 2 0
BITMAP
0003FF00
003FFFE0
00FFFFF8
01FFFFF8
03FFFFF8
07FFFFF8
0FFE01F8
1FF80078
3FE00018
3FC00008
7F800000
7F000000
7F000000
FF000000
FE000000
FE000000
FE000000
FE000000
FE000000
FE000000
FE000000
FE000000
7F000000
7F000000
7F800000
3FC00008
3FE00018
1FF00078
0FFE01F8
07FFFFF8
03FFFFF8
01FFFFF8
007FFFF8
003FFFE0
0003FF00
ENDCHAR
STARTCHAR D
ENCODING 68
SWIDTH 752 0
DWIDTH 36 0
BBX 30 34 4 0
BITMAP
FFFF8000
FFFFF000
FFFFFC00
FFFFFF00
FFFFFF80
FFFFFFC0
FE00FFE0
FE001FE0
FE000FF0
FE0007F8
FE0003F8
FE0003F8
FE0003FC
FE0001FC
FE0001FC
FE0001FC
FE0001FC
FE0001FC
FE0001FC
FE0001FC
FE0001FC
FE0003FC
FE0003F8
FE0003F8
FE0007F8
FE000FF0
FE001FF0
FE00FFE0
FFFFFFC0
FFFFFF80
FFFFFF00
FFFFFC00
FFFFF800
FFFF8000
ENDCHAR
STARTCHAR E
ENCODING 69
SWIDTH 570 0
DWIDTH 27 0
BBX 20 34 4 0
BITMAP
FFFFF0
FFFFF0
FFFFF0
FFFFF0
FFFFF0
FFFFF0
FE0000
FE0000
FE0000
FE0000
FE0000
FE0000
FE0000
FFFFF0
FFFFF0
FFFFF0
FFFFF0
FFFFF0
FFFFF0
FE0000
FE0000
FE0000
FE0000
FE0000
FE0000
FE0000
FE0000
FE0000
FFFFF0
FFFFF0
FFFFF0
FFFFF0
FFFFF0
FFFFF0
ENDCHAR
STARTCHAR F
ENCODING 70
SWIDTH 539 0
DWIDTH 26 0
BBX 20 34 4 0
BITMAP
FFFFF0
FFFFF0
FFFFF0
FFFFF0
FFFFF0
FFFFF0
FE0000
FE0000
FE0000
FE0000
FE0000
FE0000
FE0000
FFFFF0
FFFFF0
FFFFF0
FFFFF0
FFFFF0
FFFFF0
FE0000
FE0000
FE0000
FE0000
FE0000
FE0000
FE0000
FE0000
FE0000
FE0000
FE0000
FE0000
FE0000
FE0000
FE0000
ENDCHAR
STARTCHAR G
ENCODING 71
SWIDTH 803 0
DWIDTH 39 0
BBX 34 35 2 0
BITMAP
0003FC0000
003FFF8000
00FFFFE000
01FFFFF800
03FFFFFC00
07FFFFFE00
0FFE03FF00
1FF000FE00
3FE0007C00
3FC0003800
7F80001000
7F00000000
7F00000000
FF00000000
FE00000000
FE00000000
FE00000000
FE001FFFC0
FE001FFFC0
FE001FFFC0
FE001FFFC0
FF001FFFC0
7F001FFFC0
7F00001F80
7F80001F80
3FC0003F80
3FE0003F00
1FF0007F00
0FFE03FE00
07FFFFFE00
03FFFFFC00
01FFFFF000
00FFFFE000
003FFF8000
0003FC0000
ENDCHAR
STARTCHAR H
ENCODING 72
SWIDTH 774 0
DWIDTH 37 0
BBX 30 34 4 0
BITMAP
FE0001FC
FE0001FC
FE0001FC
FE0001FC
FE0001FC
FE0001FC
FE0001FC
FE0001FC
FE0001FC
FE0001FC
FE0001FC
FE0001FC
FE0001FC
FE0001FC
FFFFFFFC
FFFFFFFC
FFFFFFFC
FFFFFFFC
FFFFFFFC
FFFFFFFC
FE0001FC
FE0001FC
FE0001FC
FE0001FC
FE0001FC
FE0001FC
FE0001FC
FE0001FC
FE0001FC
FE0001FC
FE0001FC
FE0001FC
FE0001FC
FE0001FC
ENDCHAR
STARTCHAR I
ENCODING 73
SWIDTH 318 0
DWIDTH 15 0
BBX 7 34 4 0
BITMAP
FE
FE
FE
FE
FE
FE
FE
FE
FE
FE
FE
FE
FE
FE
FE
FE
FE
FE
FE
FE
FE
FE
FE
FE
FE
FE
FE
FE
FE
FE
FE
FE
FE
FE
ENDCHAR
STARTCHAR J
ENCODING 74
SWIDTH 443 0
DWIDTH 21 0
BBX 17 34 0 0
BITMAP
003F80
003F80
003F80
003F80
003F80
003F80
003F80
003F80
003F80
003F80
003F80
003F80
003F80
003F80
003F80
003F80
003F80
003F80
003F80
003F80
003F80
003F80
003F80
003F80
083F80
183F80
7C3F80
FC7F80
FFFF00
7FFF00
7FFF00
3FFE00
1FFC00
07F000
ENDCHAR
STARTCHAR K
ENCODING 75
SWIDTH 647 0
DWIDTH 31 0
BBX 28 34 4 0
BITMAP
FE001FF0
FE003FE0
FE007FC0
FE00FF80
FE00FF00
FE01FE00
FE03FE00
FE07FC00
FE0FF800
FE0FF000
FE1FE000
FE3FC000
FE7FC000
FEFF8000
FEFF0000
FFFE0000
FFFF0000
FEFF0000
FE7F8000
FE7FC000
FE3FE000
FE1FE000
FE1FF000
FE0FF800
FE07F800
FE07FC00
FE03FE00
FE01FE00
FE01FF00
FE00FF80
FE007FC0
FE007FC0
FE003FE0
FE001FF0
ENDCHAR
STARTCHAR L
ENCODING 76
SWIDTH 493 0
DWIDTH 24 0
BBX 19 34 4 0
BITMAP
FE0000
FE0000
FE0000
FE0000
FE0000
FE0000
FE0000
FE0000
FE0000
FE0000
FE0000
FE0000
FE0000
FE0000
FE0000
FE0000
FE0000
FE0000
FE0000
FE0000
FE0000
FE0000
FE0000
FE0000
FE0000
FE0000
FE0000
FE0000
FFFFE0
FFFFE0
FFFFE0
FFFFE0
FFFFE0
FFFFE0
ENDCHAR
STARTCHAR M
ENCODING 77
SWIDTH 888 0
DWIDTH 43 0
BBX 41 34 1 0
BITMAP
07F8000FF000
07F8000FF000
07FC001FF000
07FC001FF000
07FC001FF000
0FFE003FF800
0FFE003FF800
0FFE003FF800
0FFF007FF800
0FDF007FF800
0FDF007DF800
1FDF80FDFC00
1FDF80FDFC00
1F8F80F9FC00
1F8FC1F8FC00
1F8FC1F8FC00
1F87C1F0FC00
1F87E3F0FC00
3F87E3F0FE00
3F83E3E0FE00
3F83F7E0FE00
3F83F7E0FE00
3F01F7C07E00
3F01F7C07E00
7F01F7C07F00
7F00FF807F00
7F00FF807F00
7F00FF807F00
7F007F007F00
7F007F007F00
7E007F003F00
FE003E003F80
FE003E003F80
FE003E003F80
ENDCHAR
STARTCHAR N
ENCODING 78
SWIDTH 833 0
DWIDTH 40 0
BBX 32 34 4 0
BITMAP
FF00007F
FF80007F
FF80007F
FFC0007F
FFE0007F
FFF0007F
FFF0007F
FFF8007F
FFFC007F
FFFE007F
FEFE007F
FEFF007F
FE7F807F
FE7FC07F
FE3FC07F
FE1FE07F
FE0FF07F
FE0FF87F
FE07FC7F
FE03FC7F
FE01FE7F
FE01FF7F
FE00FF7F
FE007FFF
FE003FFF
FE003FFF
FE001FFF
FE000FFF
FE0007FF
FE0007FF
FE0003FF
FE0001FF
FE0000FF
FE00007F
ENDCHAR
STARTCHAR O
ENCODING 79
SWIDTH 860 0
DWIDTH 41 0
BBX 37 35 2 0
BITMAP
0003FE0000
001FFFC000
007FFFF000
01FFFFFC00
03FFFFFE00
07FFFFFF00
0FFE03FF80
1FF800FFC0
1FE0003FC0
3FC0001FE0
7F80000FF0
7F80000FF0
7F000007F0
FF000007F8
FE000003F8
FE000003F8
FE000003F8
FE000003F8
FE000003F8
FE000003F8
FE000003F8
FF000007F8
7F000007F0
7F00000FF0
7F80000FF0
3FC0001FE0
1FE0003FC0
1FF000FFC0
0FFE03FF80
07FFFFFF00
03FFFFFE00
01FFFFFC00
007FFFF000
001FFFC000
0003FE0000
ENDCHAR
STARTCHAR P
ENCODING 80
SWIDTH 556 0
DWIDTH 27 0
BBX 22 34 4 0
BITMAP
FFFC00
FFFF80
FFFFE0
FFFFF0
FFFFF0
FFFFF8
FE0FF8
FE03FC
FE01FC
FE01FC
FE01FC
FE01FC
FE01FC
FE03FC
FE0FF8
FFFFF8
FFFFF0
FFFFE0
FFFFC0
FFFF80
FFFC00
FE0000
FE0000
FE0000
FE0000
FE0000
FE0000
FE0000
FE0000
FE0000
FE0000
FE0000
FE0000
FE0000
ENDCHAR
STARTCHAR Q
ENCODING 81
SWIDTH 860 0
DWIDTH 41 0
BBX 37 39 2 -4
BITMAP
0003FE0000
001FFFC000
007FFFF000
01FFFFFC00
03FFFFFE00
07FFFFFF00
0FFE03FF80
1FF800FFC0
1FE0003FC0
3FC0001FE0
3F80000FE0
7F80000FF0
7F000007F0
FF000007F0
FE000003F8
FE000003F8
FE000003F8
FE000003F8
FE000003F8
FE000003F8
FE000003F8
FF000007F8
7F000007F0
7F00FF0FF0
3F807F8FF0
3FC03FDFE0
1FE01FFFE0
1FF00FFFC0
0FFE07FF80
07FFFFFF80
03FFFFFF00
01FFFFFE00
007FFFFF00
001FFFFF80
0003FE1FC0
0000001FC0
0000000FE0
00000007F0
00000007F8
ENDCHAR
STARTCHAR R
ENCODING 82
SWIDTH 605 0
DWIDTH 29 0
BBX 25 34 4 0
BITMAP
FFFE0000
FFFFC000
FFFFF000
FFFFF800
FFFFFC00
FFFFFC00
FE07FE00
FE01FE00
FE00FE00
FE00FE00
FE00FE00
FE00FE00
FE00FE00
FE01FC00
FE07FC00
FFFFF800
FFFFF000
FFFFE000
FFFF8000
FEFE0000
FEFF0000
FE7F8000
FE7F8000
FE3FC000
FE1FE000
FE1FE000
FE0FF000
FE07F800
FE07F800
FE03FC00
FE03FE00
FE01FE00
FE00FF00
FE00FF80
ENDCHAR
STARTCHAR S
ENCODING 83
SWIDTH 560 0
DWIDTH 27 0
BBX 23 35 2 0
BITMAP
00FF00
07FFE0
0FFFF0
3FFFF8
3FFFFC
7FFFF8
FF81F0
FF00E0
FE0040
FE0000
FE0000
FF0000
7F8000
7FE000
3FF800
1FFE00
0FFF80
07FFE0
01FFF0
007FF8
001FFC
0007FC
0001FE
0000FE
0000FE
1000FE
3000FE
3801FE
7E07FC
FFFFFC
7FFFF8
7FFFF0
3FFFE0
0FFFC0
01FE00
ENDCHAR
STARTCHAR T
ENCODING 84
SWIDTH 541 0
DWIDTH 26 0
BBX 23 34 1 0
BITMAP
FFFFFE
FFFFFE
FFFFFE
FFFFFE
FFFFFE
FFFFFE
00FE00
00FE00
00FE00
00FE00
00FE00
00FE00
00FE00
00FE00
00FE00
00FE00
00FE00
00FE00
00FE00
00FE00
00FE00
00FE00
00FE00
00FE00
00FE00
00FE00
00FE00
00FE00
00FE00
00FE00
00FE00
00FE00
00FE00
00FE00
ENDCHAR
STARTCHAR U
ENCODING 85
SWIDTH 772 0
DWIDTH 37 0
BBX 30 34 4 0
BITMAP
FE0001FC
FE0001FC
FE0001FC
FE0001FC
FE0001FC
FE0001FC
FE0001FC
FE0001FC
FE0001FC
FE0001FC
FE0001FC
FE0001FC
FE0001FC
FE0001FC
FE0001FC
FE0001FC
FE0001FC
FE0001FC
FE0001FC
FE0001FC
FE0001FC
FE0001FC
FE0001FC
FF0003FC
FF0003FC
7F8007F8
7FC00FF8
7FF03FF8
3FFFFFF0
1FFFFFE0
1FFFFFE0
07FFFF80
03FFFF00
003FF000
ENDCHAR
STARTCHAR V
ENCODING 86
SWIDTH 668 0
DWIDTH 32 0
BBX 33 34 0 0
BITMAP
FF00007F80
7F8000FF00
7F8000FF00
7F8000FF00
3FC001FE00
3FC001FE00
3FC001FE00
1FE003FC00
1FE003FC00
0FE003F800
0FF007F800
0FF007F800
07F007F000
07F80FF000
03F80FE000
03F80FE000
03FC1FE000
01FC1FC000
01FC1FC000
01FE3FC000
00FE3F8000
00FE3F8000
007E3F0000
007F7F0000
007F7F0000
003F7E0000
003F7E0000
001FFE0000
001FFC0000
001FFC0000
000FF80000
000FF80000
000FF80000
0007F00000
ENDCHAR
STARTCHAR W
ENCODING 87
SWIDTH 1004 0
DWIDTH 48 0
BBX 46 34 1 0
BITMAP
FE001FE001FC
FF001FE003FC
7F001FE003F8
7F001FE003F8
7F003FF003F8
7F803FF007F8
3F803FF007F0
3F807FF807F0
3F807FF807F0
1FC07FF80FF0
1FC07CF80FE0
1FC0FCFC0FE0
1FC0FCFC0FE0
0FE0FCFC1FC0
0FE0F87C1FC0
0FE1F87E1FC0
0FE1F87E1FC0
07F1F87E1F80
07F1F03F3F80
07F3F03F3F80
07F3F03F3F80
03F3E01F3F00
03F3E01F7F00
03FFE01FFF00
03FFE01FFF00
01FFC00FFE00
01FFC00FFE00
01FFC00FFE00
00FFC00FFC00
00FF8007FC00
00FF8007FC00
00FF8007FC00
007F0003F800
007F0003F800
ENDCHAR
STARTCHAR X
ENCODING 88
SWIDTH 600 0
DWIDTH 29 0
BBX 29 34 0 0
BITMAP
FF0007F8
7F800FF0
3F801FE0
3FC01FC0
1FC03FC0
0FE03F80
0FF07F80
07F07F00
03F8FE00
03F8FE00
01FDFC00
01FDF800
00FFF800
007FF000
007FE000
003FE000
003FE000
003FE000
007FF000
007FF000
00FFF800
01FDFC00
01FDFC00
03F9FE00
03F8FE00
07F0FF00
0FF07F80
0FE03F80
1FE03FC0
1FC01FC0
3FC01FE0
7F800FF0
7F800FF0
FF0007F8
ENDCHAR
STARTCHAR Y
ENCODING 89
SWIDTH 605 0
DWIDTH 29 0
BBX 31 34 -1 0
BITMAP
FF8003FE
7FC007FC
3FC007F8
3FE00FF8
1FE00FF0
0FF01FE0
0FF01FE0
07F83FC0
03FC7F80
03FC7F80
01FCFF00
01FEFF00
00FEFE00
007FFC00
007FFC00
003FF800
001FF000
001FF000
000FE000
000FE000
000FE000
000FE000
000FE000
000FE000
000FE000
000FE000
000FE000
000FE000
000FE000
000FE000
000FE000
000FE000
000FE000
000FE000
ENDCHAR
STARTCHAR Z
ENCODING 90
SWIDTH 633 0
DWIDTH 30 0
BBX 30 34 0 0
BITMAP
3FFFFFFC
3FFFFFF8
3FFFFFF0
3FFFFFF0
3FFFFFE0
3FFFFFC0
00003FC0
00007F80
0000FF80
0000FF00
0001FE00
0003FE00
0003FC00
0007F800
0007F800
000FF000
001FE000
001FE000
003FC000
007F8000
007F8000
00FF0000
01FF0000
01FE0000
03FC0000
07FC0000
07F80000
0FF00000
0FFFFFF8
1FFFFFF8
3FFFFFF8
3FFFFFF8
7FFFFFF8
FFFFFFF8
ENDCHAR
STARTCHAR bracketleft
ENCODING 91
SWIDTH 335 0
DWIDTH 16 0
BBX 11 46 4 -12
BITMAP
FFE0
FFE0
FFE0
FFE0
FFE0
FC00
FC00
FC00
FC00
FC00
FC00
FC00
FC00
FC00
FC00
FC00
FC00
FC00
FC00
FC00
FC00
FC00
FC00
FC00
FC00
FC00
FC00
FC00
FC00
FC00
FC00
FC00
FC00
FC00
FC00
FC00
FC00
FC00
FC00
FC00
FC00
FFE0
FFE0
FFE0
FFE0
FFE0
ENDCHAR
STARTCHAR backslash
ENCODING 92
SWIDTH 454 0
DWIDTH 22 0
BBX 22 40 0 -6
BITMAP
F80000
7C0000
7C0000
7E0000
3E0000
3E0000
1F0000
1F0000
0F8000
0F8000
0F8000
07C000
07C000
03E000
03E000
01F000
01F000
01F000
00F800
00F800
007C00
007C00
003E00
003E00
003E00
001F00
001F00
000F80
000F80
0007C0
0007C0
0007C0
0003E0
0003E0
0001F0
0001F0
0001F8
0000F8
0000F8
00007C
ENDCHAR
STARTCHAR bracketright
ENCODING 93
SWIDTH 335 0
DWIDTH 16 0
BBX 11 46 1 -12
BITMAP
FFE0
FFE0
FFE0
FFE0
FFE0
07E0
07E0
07E0
07E0
07E0
07E0
07E0
07E0
07E0
07E0
07E0
07E0
07E0
07E0
07E0
07E0
07E0
07E0
07E0
07E0
07E0
07E0
07E0
07E0
07E0
07E0
07E0
07E0
07E0
07E0
07E0
07E0
07E0
07E0
07E0
07E0
FFE0
FFE0
FFE0
FFE0
FFE0
ENDCHAR
STARTCHAR asciicircum
ENCODING 94
SWIDTH 1000 0
DWIDTH 48 0
BBX 28 13 10 21
BITMAP
001F8000
003FC000
007FE000
00FFF000
01FFF800
03F9FC00
03F0FC00
07E07E00
0FC03F00
1F801F80
3F000FC0
7E0007E0
FC0003F0
ENDCHAR
STARTCHAR underscore
ENCODING 95
SWIDTH 500 0
DWIDTH 24 0
BBX 24 5 0 -11
BITMAP
FFFFFF
FFFFFF
FFFFFF
FFFFFF
FFFFFF
ENDCHAR
STARTCHAR grave
ENCODING 96
SWIDTH 500 0
DWIDTH 24 0
BBX 11 9 5 26
BITMAP
FE00
7E00
3F00
1F00
0F80
0780
07C0
03C0
01E0
ENDCHAR
STARTCHAR a
ENCODING 97
SWIDTH 610 0
DWIDTH 29 0
BBX 24 24 2 0
BITMAP
03F800
0FFE7F
1FFF7F
3FFFFF
3FFFFF
7FC3FF
7F80FF
FF00FF
FF007F
FE007F
FE007F
FE007F
FE007F
FE007F
FE007F
FE007F
7F00FF
7F80FF
7FC3FF
3FFFFF
3FFFFF
1FFF7F
0FFE7F
03F87F
ENDCHAR
STARTCHAR b
ENCODING 98
SWIDTH 616 0
DWIDTH 30 0
BBX 24 37 3 0
BITMAP
FE0000
FE0000
FE0000
FE0000
FE0000
FE0000
FE0000
FE0000
FE0000
FE0000
FE0000
FE0000
FE0000
FE1FC0
FE7FF0
FEFFF8
FFFFFC
FFFFFC
FFC3FE
FF01FE
FF00FE
FE00FF
FE007F
FE007F
FE007F
FE007F
FE007F
FE007F
FE00FF
FF00FE
FF01FE
FFC3FE
FFFFFC
FFFFFC
FEFFF8
FE7FE0
FE1FC0
ENDCHAR
STARTCHAR c
ENCODING 99
SWIDTH 458 0
DWIDTH 22 0
BBX 18 24 2 0
BITMAP
00FF00
03FFC0
0FFFC0
1FFFC0
3FFFC0
3FC1C0
7F8040
7F0040
FF0000
FE0000
FE0000
FE0000
FE0000
FE0000
FE0000
FF0000
7F0040
7F8040
3FE1C0
3FFFC0
1FFFC0
0FFFC0
03FFC0
00FF00
ENDCHAR
STARTCHAR d
ENCODING 100
SWIDTH 616 0
DWIDTH 30 0
BBX 24 37 2 0
BITMAP
00007F
00007F
00007F
00007F
00007F
00007F
00007F
00007F
00007F
00007F
00007F
00007F
00007F
03F87F
0FFE7F
1FFF7F
3FFFFF
3FFFFF
7FC3FF
7F80FF
FF00FF
FF007F
FE007F
FE007F
FE007F
FE007F
FE007F
FE007F
FE007F
7F00FF
7F80FF
7FC3FF
3FFFFF
3FFFFF
1FFF7F
0FFE7F
03F87F
ENDCHAR
STARTCHAR e
ENCODING 101
SWIDTH 573 0
DWIDTH 28 0
BBX 24 24 2 0
BITMAP
00FF00
03FFE0
0FFFF0
1FFFF8
3FFFFC
3FC3FC
7F80FE
7F00FE
FF007F
FE007F
FFFFFF
FFFFFF
FFFFFF
FFFFFF
FE0000
FE0000
7F0020
7F8078
3FC1FC
3FFFFE
1FFFFC
0FFFF8
03FFE0
00FF00
ENDCHAR
STARTCHAR f
ENCODING 102
SWIDTH 331 0
DWIDTH 16 0
BBX 16 37 1 0
BITMAP
00FF
03FF
07FF
0FFF
0FFF
1FE1
1FC0
1FC0
1FC0
1FC0
1FC0
1FC0
1FC0
1FC0
FFFE
FFFE
FFFE
FFFE
FFFE
1FC0
1FC0
1FC0
1FC0
1FC0
1FC0
1FC0
1FC0
1FC0
1FC0
1FC0
1FC0
1FC0
1FC0
1FC0
1FC0
1FC0
1FC0
ENDCHAR
STARTCHAR g
ENCODING 103
SWIDTH 616 0
DWIDTH 30 0
BBX 24 34 2 -10
BITMAP
03F800
0FFE7F
1FFF7F
3FFFFF
3FFFFF
7FC3FF
7F80FF
FF00FF
FF007F
FE007F
FE007F
FE007F
FE007F
FE007F
FE007F
FE007F
7F00FF
7F80FF
7FC3FF
3FFFFF
3FFFFF
1FFF7F
07FE7F
01F87F
00007F
00007F
7F00FF
7F00FF
7FC1FE
3FFFFE
3FFFFC
1FFFF8
07FFF0
00FF80
ENDCHAR
STARTCHAR h
ENCODING 104
SWIDTH 618 0
DWIDTH 30 0
BBX 23 37 3 0
BITMAP
FE0000
FE0000
FE0000
FE0000
FE0000
FE0000
FE0000
FE0000
FE0000
FE0000
FE0000
FE0000
FE0000
FE0FC0
FE3FF0
FEFFF8
FFFFFC
FFFFFC
FFC3FE
FF81FE
FF00FE
FE00FE
FE00FE
FE00FE
FE00FE
FE00FE
FE00FE
FE00FE
FE00FE
FE00FE
FE00FE
FE00FE
FE00FE
FE00FE
FE00FE
FE00FE
FE00FE
ENDCHAR
STARTCHAR i
ENCODING 105
SWIDTH 285 0
DWIDTH 14 0
BBX 8 37 3 0
BITMAP
3C
7E
FF
FF
FF
FF
7E
3C
00
00
00
00
00
00
FE
FE
FE
FE
FE
FE
FE
FE
FE
FE
FE
FE
FE
FE
FE
FE
FE
FE
FE
FE
FE
FE
FE
ENDCHAR
STARTCHAR j
ENCODING 106
SWIDTH 285 0
DWIDTH 14 0
BBX 8 47 3 -10
BITMAP
3C
7E
FF
FF
FF
FF
7E
3C
00
00
00
00
00
00
FE
FE
FE
FE
FE
FE
FE
FE
FE
FE
FE
FE
FE
FE
FE
FE
FE
FE
FE
FE
FE
FE
FE
FE
FE
FE
FE
FE
FE
FE
FE
FE
FE
ENDCHAR
STARTCHAR k
ENCODING 107
SWIDTH 564 0
DWIDTH 27 0
BBX 24 37 3 0
BITMAP
FE0000
FE0000
FE0000
FE0000
FE0000
FE0000
FE0000
FE0000
FE0000
FE0000
FE0000
FE0000
FE0000
FE0000
FE01FE
FE03FC
FE07F8
FE0FF0
FE0FE0
FE1FC0
FE3F80
FE7F00
FEFF00
FEFE00
FFFC00
FFFE00
FEFF00
FE7F80
FE3F80
FE3FC0
FE1FE0
FE0FF0
FE07F8
FE07F8
FE03FC
FE01FE
FE00FF
ENDCHAR
STARTCHAR l
ENCODING 108
SWIDTH 285 0
DWIDTH 14 0
BBX 7 37 3 0
BITMAP
FE
FE
FE
FE
FE
FE
FE
FE
FE
FE
FE
FE
FE
FE
FE
FE
FE
FE
FE
FE
FE
FE
FE
FE
FE
FE
FE
FE
FE
FE
FE
FE
FE
FE
FE
FE
FE
ENDCHAR
STARTCHAR m
ENCODING 109
SWIDTH 909 0
DWIDTH 44 0
BBX 37 24 3 0
BITMAP
000FC01F80
FE3FF07FE0
FEFFF9FFE0
FFFFFBFFF0
FFFFFFFFF8
FFC7FF0FF8
FF83FE07F8
FF01FE03F8
FF01FC03F8
FE01FC03F8
FE01FC03F8
FE01FC03F8
FE01FC03F8
FE01FC03F8
FE01FC03F8
FE01FC03F8
FE01FC03F8
FE01FC03F8
FE01FC03F8
FE01FC03F8
FE01FC03F8
FE01FC03F8
FE01FC03F8
FE01FC03F8
ENDCHAR
STARTCHAR n
ENCODING 110
SWIDTH 618 0
DWIDTH 30 0
BBX 23 24 3 0
BITMAP
000FC0
FE3FF0
FEFFF8
FFFFFC
FFFFFC
FFC3FE
FF81FE
FF00FE
FE00FE
FE00FE
FE00FE
FE00FE
FE00FE
FE00FE
FE00FE
FE00FE
FE00FE
FE00FE
FE00FE
FE00FE
FE00FE
FE00FE
FE00FE
FE00FE
ENDCHAR
STARTCHAR o
ENCODING 111
SWIDTH 608 0
DWIDTH 29 0
BBX 26 24 2 0
BITMAP
007F8000
03FFF000
07FFF800
0FFFFC00
1FFFFE00
3FC1FF00
7F807F80
7F003F80
FF003FC0
FE001FC0
FE001FC0
FE001FC0
FE001FC0
FE001FC0
FE001FC0
FF003FC0
7F003F80
7F807F80
3FC1FF00
1FFFFE00
0FFFFC00
07FFF800
03FFF000
007F8000
ENDCHAR
STARTCHAR p
ENCODING 112
SWIDTH 616 0
DWIDTH 30 0
BBX 24 34 3 -10
BITMAP
001F80
FE7FF0
FEFFF8
FFFFFC
FFFFFC
FF83FE
FF01FE
FE00FE
FE00FF
FE007F
FC007F
FC007F
FC007F
FC007F
FE007F
FE00FF
FE00FE
FF01FE
FF83FE
FFFFFC
FFFFFC
FEFFF8
FE7FE0
FE1F80
FE0000
FE0000
FE0000
FE0000
FE0000
FE0000
FE0000
FE0000
FE0000
FE0000
ENDCHAR
STARTCHAR q
ENCODING 113
SWIDTH 616 0
DWIDTH 30 0
BBX 24 34 2 -10
BITMAP
01F800
0FFE7F
1FFF7F
3FFFFF
3FFFFF
7FC1FF
7F80FF
FF007F
FF007F
FE007F
FE007F
FE003F
FE003F
FE007F
FE007F
FF007F
7F007F
7F80FF
7FC1FF
3FFFFF
3FFFFF
1FFF7F
07FE7F
01F87F
00007F
00007F
00007F
00007F
00007F
00007F
00007F
00007F
00007F
00007F
ENDCHAR
STARTCHAR r
ENCODING 114
SWIDTH 407 0
DWIDTH 20 0
BBX 17 24 3 0
BITMAP
000F80
FE3F80
FE7F80
FEFF80
FEFF00
FFFF00
FFFF00
FFC000
FF0000
FF0000
FE0000
FE0000
FE0000
FE0000
FE0000
FE0000
FE0000
FE0000
FE0000
FE0000
FE0000
FE0000
FE0000
FE0000
ENDCHAR
STARTCHAR s
ENCODING 115
SWIDTH 456 0
DWIDTH 22 0
BBX 20 24 1 0
BITMAP
01FC00
0FFF00
1FFFC0
3FFFE0
3FFFE0
7F07F0
7E03E0
7E0100
7F0000
3FC000
3FFC00
1FFF00
07FFC0
01FFE0
001FE0
0007F0
0803F0
3C03F0
7E07F0
FFFFF0
7FFFE0
3FFFC0
1FFF80
03FC00
ENDCHAR
STARTCHAR t
ENCODING 116
SWIDTH 309 0
DWIDTH 15 0
BBX 13 31 1 0
BITMAP
1FC0
1FC0
1FC0
1FC0
1FC0
1FC0
1FC0
1FC0
FFF8
FFF8
FFF8
FFF8
FFF8
1FC0
1FC0
1FC0
1FC0
1FC0
1FC0
1FC0
1FC0
1FC0
1FC0
1FC0
1FC0
1FC0
1FC0
1FC0
1FC0
1FC0
1FC0
ENDCHAR
STARTCHAR u
ENCODING 117
SWIDTH 619 0
DWIDTH 30 0
BBX 23 23 3 0
BITMAP
FE00FE
FE00FE
FE00FE
FE00FE
FE00FE
FE00FE
FE00FE
FE00FE
FE00FE
FE00FE
FE00FE
FE00FE
FE00FE
FE00FE
FE00FE
FE00FE
7F01FC
7F83FC
7FFFFC
3FFFF8
1FFFF0
0FFFE0
01FF00
ENDCHAR
STARTCHAR v
ENCODING 118
SWIDTH 514 0
DWIDTH 25 0
BBX 25 23 0 0
BITMAP
FF003F80
7F007F00
7F007F00
7F807F00
3F80FE00
3F80FE00
1FC0FC00
1FC1FC00
1FC1FC00
0FE1F800
0FE3F800
0FE3F800
07F3F000
07F7F000
03F7E000
03F7E000
03F7E000
01FFC000
01FFC000
00FF8000
00FF8000
00FF8000
007F0000
ENDCHAR
STARTCHAR w
ENCODING 119
SWIDTH 816 0
DWIDTH 39 0
BBX 40 23 0 0
BITMAP
FE00FF007F
7F00FF00FE
7F00FF00FE
7F01FF80FE
3F81FF81FC
3F81FF81FC
3F83FFC1FC
1FC3FFC3F8
1FC3E7C3F8
1FC3E7C3F8
0FE7E7E3F0
0FE7E3E7F0
0FE7C3E7F0
07E7C3E7E0
07FFC3FFE0
07FF81FFE0
03FF81FFC0
03FF81FFC0
03FF00FFC0
01FF00FF80
01FF00FF80
01FE007F80
00FE007F00
ENDCHAR
STARTCHAR x
ENCODING 120
SWIDTH 498 0
DWIDTH 24 0
BBX 25 23 0 0
BITMAP
FF80FF80
7F80FE00
3FC1FE00
3FC3FC00
1FE3F800
0FE7F800
07F7F000
07FFE000
03FFC000
01FFC000
01FF8000
00FF8000
01FF8000
03FFC000
03FFE000
07FFF000
0FF7F000
0FE7F800
1FC3FC00
3FC3FC00
3F81FE00
7F80FF00
FF00FF80
ENDCHAR
STARTCHAR y
ENCODING 121
SWIDTH 514 0
DWIDTH 25 0
BBX 25 33 0 -10
BITMAP
FF007F80
7F007F00
7F007F00
7F80FF00
3F80FE00
3FC0FE00
1FC1FC00
1FC1FC00
0FE3FC00
0FE3F800
0FE3F800
07F7F000
07F7F000
03F7E000
03F7E000
01FFE000
01FFC000
01FFC000
00FF8000
00FF8000
007F8000
007F0000
00FF0000
00FE0000
01FE0000
01FC0000
01FC0000
03FC0000
03F80000
07F80000
07F00000
07F00000
0FF00000
ENDCHAR
STARTCHAR z
ENCODING 122
SWIDTH 480 0
DWIDTH 23 0
BBX 22 23 0 0
BITMAP
7FFFFC
7FFFF8
7FFFF0
7FFFF0
7FFFE0
000FC0
001FC0
003F80
003F00
007F00
00FE00
00FC00
01FC00
03F800
03F000
07F000
0FE000
0FC000
1FFFFC
3FFFFC
3FFFFC
7FFFFC
FFFFFC
ENDCHAR
STARTCHAR braceleft
ENCODING 123
SWIDTH 500 0
DWIDTH 24 0
BBX 17 44 4 -9
BITMAP
003F80
00FF80
01FF80
03FF80
03FF80
03F800
03F000
03F000
03F000
03F000
03F000
03F000
03F000
03F000
03F000
03F000
03F000
07F000
07F000
0FE000
FFE000
FFC000
FE0000
FFC000
FFE000
0FE000
07F000
03F000
03F000
03F000
03F000
03F000
03F000
03F000
03F000
03F000
03F000
03F000
03F800
03FF80
03FF80
01FF80
00FF80
003F80
ENDCHAR
STARTCHAR bar
ENCODING 124
SWIDTH 500 0
DWIDTH 24 0
BBX 5 48 10 -11
BITMAP
F8
F8
F8
F8
F8
F8
F8
F8
F8
F8
F8
F8
F8
F8
F8
F8
F8
F8
F8
F8
F8
F8
F8
F8
F8
F8
F8
F8
F8
F8
F8
F8
F8
F8
F8
F8
F8
F8
F8
F8
F8
F8
F8
F8
F8
F8
F8
F8
ENDCHAR
STARTCHAR braceright
ENCODING 125
SWIDTH 500 0
DWIDTH 24 0
BBX 17 44 3 -9
BITMAP
FE0000
FF8000
FFC000
FFC000
FFE000
0FE000
07E000
07E000
07E000
07E000
07E000
07E000
07E000
07E000
07E000
07E000
07E000
07E000
07F000
03F800
03FF80
01FF80
003F80
01FF80
03FF80
03F800
07F000
07E000
07E000
07E000
07E000
07E000
07E000
07E000
07E000
07E000
07E000
07E000
0FE000
FFE000
FFE000
FFC000
FF8000
FE0000
ENDCHAR
STARTCHAR asciitilde
ENCODING 126
SWIDTH 833 0
DWIDTH 40 0
BBX 32 10 4 9
BITMAP
00000001
03F80003
1FFF8007
7FFFF03F
FFFFFFFF
FFFFFFFF
FC07FFFE
F000FFF8
C0001FC0
80000000
ENDCHAR
STARTCHAR nonbreakingspace
ENCODING 160
SWIDTH 612 0
DWIDTH 29 0
BBX 1 1 0 0
BITMAP
00
ENDCHAR
STARTCHAR degree
ENCODING 176
SWIDTH 329 0
DWIDTH 16 0
BBX 14 14 1 20
BITMAP
0FC0
1FE0
3FF0
7878
F03C
E01C
E01C
E01C
E01C
F03C
7878
3FF0
1FE0
0FC0
ENDCHAR
ENDFONT
